<?xml version="1.0" standalone="no"?>
<svg xmlns:xlink="http://www.w3.org/1999/xlink" id="wave" style="transform:rotate(180deg); transition: 0.3s" viewBox="0 0 1440 100" version="1.1" xmlns="http://www.w3.org/2000/svg"><defs><linearGradient id="sw-gradient-0" x1="0" x2="0" y1="1" y2="0"><stop stop-color="rgba(255, 249, 234, 1)" offset="0%"/><stop stop-color="rgba(255, 249, 234, 1)" offset="100%"/></linearGradient></defs><path style="transform:translate(0, 0px); opacity:1" fill="url(#sw-gradient-0)" d="M0,60L26.7,61.7C53.3,63,107,67,160,58.3C213.3,50,267,30,320,18.3C373.3,7,427,3,480,5C533.3,7,587,13,640,23.3C693.3,33,747,47,800,46.7C853.3,47,907,33,960,33.3C1013.3,33,1067,47,1120,53.3C1173.3,60,1227,60,1280,53.3C1333.3,47,1387,33,1440,28.3C1493.3,23,1547,27,1600,30C1653.3,33,1707,37,1760,43.3C1813.3,50,1867,60,1920,60C1973.3,60,2027,50,2080,43.3C2133.3,37,2187,33,2240,31.7C2293.3,30,2347,30,2400,31.7C2453.3,33,2507,37,2560,38.3C2613.3,40,2667,40,2720,43.3C2773.3,47,2827,53,2880,56.7C2933.3,60,2987,60,3040,55C3093.3,50,3147,40,3200,35C3253.3,30,3307,30,3360,38.3C3413.3,47,3467,63,3520,71.7C3573.3,80,3627,80,3680,66.7C3733.3,53,3787,27,3813,13.3L3840,0L3840,100L3813.3,100C3786.7,100,3733,100,3680,100C3626.7,100,3573,100,3520,100C3466.7,100,3413,100,3360,100C3306.7,100,3253,100,3200,100C3146.7,100,3093,100,3040,100C2986.7,100,2933,100,2880,100C2826.7,100,2773,100,2720,100C2666.7,100,2613,100,2560,100C2506.7,100,2453,100,2400,100C2346.7,100,2293,100,2240,100C2186.7,100,2133,100,2080,100C2026.7,100,1973,100,1920,100C1866.7,100,1813,100,1760,100C1706.7,100,1653,100,1600,100C1546.7,100,1493,100,1440,100C1386.7,100,1333,100,1280,100C1226.7,100,1173,100,1120,100C1066.7,100,1013,100,960,100C906.7,100,853,100,800,100C746.7,100,693,100,640,100C586.7,100,533,100,480,100C426.7,100,373,100,320,100C266.7,100,213,100,160,100C106.7,100,53,100,27,100L0,100Z"/></svg>